<?xml version="1.0" encoding="UTF-8"?>
<svg width="230px" height="42px" viewBox="0 0 230 42" version="1.1" xmlns="http://www.w3.org/2000/svg" xmlns:xlink="http://www.w3.org/1999/xlink">
    <!-- Generator: Sketch 40.3 (33839) - http://www.bohemiancoding.com/sketch -->
    <title>trucker-path-new</title>
    <desc>Created with Sketch.</desc>
    <defs></defs>
    <g id="Page-1" stroke="none" stroke-width="1" fill="none" fill-rule="evenodd">
        <g id="Artboard" transform="translate(-429.000000, -198.000000)">
            <g id="trucker-path-new" transform="translate(429.000000, 198.000000)">
                <path d="M55.2167081,16.886513 L50.8170387,16.886513 L50.0657439,13.0067353 L64.4026184,13.0067353 L64.4026184,16.886513 L59.6276908,16.886513 L59.6276908,28.9823979 L55.2167081,28.9823979 L55.2167081,16.886513 Z M72.0134512,20.6827728 L74.9646585,28.9823771 L79.7482008,28.9823771 L77.1697088,23.4149989 C79.1487011,22.5694016 80.4436557,20.9519638 80.4436557,18.5060656 L80.4436557,18.4605928 C80.4436557,16.8885236 79.9686539,15.6570581 79.0357241,14.7433818 C77.9670869,13.6480745 76.2821877,13.0067144 73.8507682,13.0067144 L66.3250029,13.0067144 L66.3250029,28.9823771 L70.7353628,28.9823771 L70.7353628,16.843207 L73.6190018,16.843207 C75.1004178,16.843207 76.0107211,17.4788374 76.0107211,18.7330132 L76.0107211,18.7841116 C76.0107211,19.9475501 75.145619,20.6739178 73.6471812,20.6739178 L72.0134512,20.6827728 Z M92.8123424,13.0067248 L92.8094363,22.0019649 C92.8094363,24.2378962 91.6503967,25.2877827 89.8804923,25.2877827 C88.1050869,25.2877827 86.9459435,24.1925275 86.9459435,21.8827354 L86.9488497,13.0067248 L82.4678077,13.0067248 L82.4678077,21.9792025 C82.4678077,26.9733517 85.3063493,29.2831959 89.8353949,29.2831959 C94.3587319,29.2831959 97.2932287,27.0187725 97.2932287,21.8600771 L97.2932287,13.0067248 L92.8123424,13.0067248 Z M111.298837,23.3242459 C110.343333,24.4875802 109.364942,25.2652026 107.702721,25.2652026 C105.474941,25.2652026 103.908623,23.392325 103.908623,20.997421 L103.908623,20.9519481 C103.908623,18.6194978 105.474941,16.7296395 107.702721,16.7296395 C108.686457,16.7296395 109.466917,17.0303958 110.139746,17.5468487 C110.139746,17.5468487 110.733433,17.9044331 111.168786,18.6251233 L114.504801,16.0202524 C113.096817,14.0566374 111.004796,12.6890138 107.748026,12.6890138 C102.930596,12.6890138 99.3570551,16.3380936 99.3570551,20.997421 L99.3570551,21.0427897 C99.3570551,25.8099914 103.02105,29.3059324 107.567014,29.3059324 C111.09525,29.3059324 113.119495,27.7735543 114.617829,25.6964915 L111.298837,23.3242459 Z M125.598409,19.8794033 L131.62584,13.0066988 L126.395631,13.0066988 L120.916686,19.4877533 L120.916686,13.0066988 L116.500721,13.0066988 L116.500721,28.9823614 L120.916686,28.9823614 L120.916686,24.8508422 L122.528205,23.0518254 L126.531287,28.9823614 L131.829427,28.9823614 L125.598409,19.8794033 Z M137.466675,25.2197089 L137.466675,22.6830213 L145.105573,22.6830213 L145.105573,19.1927058 L137.466675,19.1927058 L137.466675,16.7750394 L145.085282,16.7750394 L145.902796,13.0067301 L133.101568,13.0067301 L133.101568,28.9823927 L146.015825,28.9823927 L146.015825,25.2197089 L137.466675,25.2197089 Z M153.799958,20.673923 L156.911627,28.9823823 L161.695014,28.9823823 L159.116781,23.4150041 C161.090117,22.5694068 162.390676,20.9462914 162.390676,18.5060708 L162.390676,18.4605459 C162.390676,16.8885288 161.909914,15.6513857 160.977088,14.7376052 C159.908347,13.6424542 158.229001,13.0067196 155.791976,13.0067196 L148.266211,13.0067196 L148.266211,28.9823823 L152.676571,28.9823823 L152.676571,16.8375346 L155.565867,16.8375346 C156.402737,16.8375346 157.052887,17.0417718 157.459906,17.444777 C157.776729,17.7511589 157.952085,18.182552 157.952085,18.7329663 L157.952085,18.7841168 C157.952085,19.9475553 157.092536,20.673923 155.588389,20.673923 L153.799958,20.673923 Z M177.253519,13.0067248 L170.434418,13.0067248 L170.434418,28.9823875 L174.844778,28.9823875 L174.844778,16.7238837 L176.914225,16.7238837 C178.508722,16.7238837 179.46433,17.4560853 179.46433,18.8238652 L179.46433,18.8691818 C179.46433,20.1290873 178.508722,20.9462966 176.936851,20.9462966 L175.995307,20.9462966 L176.541094,24.4195793 L177.027409,24.4195793 C180.985342,24.4195793 183.874638,22.4331497 183.874638,18.6649446 L183.874638,18.6195238 C183.874638,15.0837876 181.279332,13.0067248 177.253519,13.0067248 Z M193.899505,12.8932667 L189.647479,12.8932667 L182.868286,28.9823771 L187.51036,28.9823771 L188.646825,26.1278482 L194.78739,26.1278482 L195.946481,28.9823771 L200.673301,28.9823771 L193.899505,12.8932667 Z M189.94152,22.6830056 L191.739812,18.1428036 L193.509509,22.6830056 L189.94152,22.6830056 Z M203.572857,16.8296485 L199.636461,16.8296485 L198.2989,12.9499749 L212.758871,12.9499749 L212.758871,16.8296485 L207.983995,16.8296485 L207.983995,28.9256376 L203.572857,28.9256376 L203.572857,16.8296485 Z M224.833277,12.9499853 L224.833277,18.9883436 L219.167715,18.9883436 L219.167715,13.0067092 L214.757511,13.0067092 L214.757511,28.9823719 L219.167715,28.9823719 L219.167715,22.9098959 L224.833277,22.9098959 L224.833277,28.9823719 L229.24343,28.9823719 L229.24343,12.9499853 L224.833277,12.9499853 Z" id="name" fill="#1C3755"></path>
                <g id="emblem">
                    <polygon id="place" fill="#1688CA" points="0.00399656197 41.9920124 41.9920085 41.9920124 41.9920085 0.00400044266 0.00399656197 0.00400044266"></polygon>
                    <path d="M27.4324349,10.8855594 L14.5635577,10.8855594 L14.5635577,8.07891447 L10.2739319,8.07899956 L10.2739319,17.7962906 L14.5635577,17.7962906 L14.5635577,14.9895618 L27.4324349,14.9895618 L27.4324349,17.7962906 L31.7220607,17.7962906 L31.7220607,8.07891447 L27.4324349,8.07891447 L27.4324349,10.8855594 Z M23.1429326,25.0177933 L27.4325415,25.0177933 L27.4325415,29.1217117 L14.5635806,29.1217117 L14.5635806,25.0177933 L18.8531395,25.0177933 L18.8531395,18.305423 L23.1429326,18.305423 L23.1429326,25.0177933 Z M8.07892072,33.9169448 L8.07892072,23.5196363 L12.3684628,25.0316947 L12.3685465,33.9170525 L8.07892072,33.9169448 Z M29.6274515,33.9170525 L29.6274515,25.0316947 L33.9170772,23.5196363 L33.9170772,33.9170525 L29.6274515,33.9170525 Z" id="Combined-Shape" fill="#FFFFFF"></path>
                </g>
            </g>
        </g>
    </g>
</svg>