<svg width="200" height="37" xmlns="http://www.w3.org/2000/svg" xmlns:xlink="http://www.w3.org/1999/xlink">
    <defs>
        <path id="a" d="M0 0h156.324v14.643H0z"/>
        <path id="c" d="M0 37h200V0H0z"/>
    </defs>
    <g fill="none" fill-rule="evenodd">
        <g transform="translate(43.676 11.178)">
            <mask id="b" fill="#fff">
                <use xlink:href="#a"/>
            </mask>
            <path d="M152.477.23v5.321h-4.944V.281h-3.847v14.077h3.847V9.007h4.944v5.35h3.847V.23h-3.847zm-18.55 3.419h-3.434L129.327.23h12.615V3.65h-4.166v10.659h-3.848V3.648zm-11.892 5.158 1.569-4.001 1.544 4.001h-3.113zM125.488.18h-3.71l-5.914 14.178h4.05l.992-2.516h5.357l1.01 2.516h4.125L125.488.18zm-14.523.1h-5.95v14.078h3.849V3.555h1.805c1.391 0 2.225.646 2.225 1.851v.04c0 1.11-.834 1.83-2.205 1.83h-.822l.477 3.061h.424c3.453 0 5.974-1.75 5.974-5.071v-.04c0-3.116-2.264-4.946-5.777-4.946zM90.503 7.037l2.715 7.32h4.174l-2.25-4.905c1.722-.745 2.856-2.176 2.856-4.326v-.04c0-1.385-.42-2.476-1.233-3.28C95.833.84 94.368.28 92.241.28h-6.566v14.078h3.848V3.656h2.521c.73 0 1.297.18 1.653.535.276.27.428.65.428 1.135v.045c0 1.026-.75 1.666-2.061 1.666h-1.56zm-14.25 4.005V8.807h6.665V5.732h-6.665V3.6H82.9l.713-3.32H72.445v14.077h11.267v-3.316h-7.459zM65.898 6.336 71.158.28h-4.564l-4.78 5.711V.281h-3.852v14.077h3.852v-3.64l1.406-1.586 3.493 5.226h4.622l-5.437-8.022zM53.424 9.372c-.834 1.025-1.688 1.71-3.138 1.71-1.944 0-3.31-1.65-3.31-3.76v-.04c0-2.056 1.366-3.722 3.31-3.722.858 0 1.539.266 2.126.72 0 0 .518.316.898.95l2.91-2.294C54.992 1.206 53.167 0 50.325 0c-4.203 0-7.32 3.216-7.32 7.322v.04c0 4.2 3.196 7.281 7.162 7.281 3.078 0 4.845-1.35 6.152-3.18l-2.895-2.091zM37.294.28l-.002 7.927c0 1.97-1.011 2.895-2.555 2.895-1.55 0-2.56-.965-2.56-3L32.178.28h-3.91v7.907c0 4.4 2.477 6.436 6.428 6.436 3.946 0 6.507-1.995 6.507-6.541V.28h-3.91zM19.15 7.045l2.574 7.313h4.174l-2.25-4.906c1.727-.745 2.856-2.17 2.856-4.326v-.04c0-1.385-.414-2.47-1.228-3.275C24.343.846 22.873.28 20.751.28h-6.566v14.077h3.848V3.66h2.516c1.293 0 2.087.56 2.087 1.665v.045c0 1.026-.755 1.666-2.062 1.666l-1.425.008zM4.494 3.699H.656L0 .28h12.509V3.7H8.343v10.659H4.494V3.698z" fill="#FFF" mask="url(#b)"/>
        </g>
        <mask id="d" fill="#fff">
            <use xlink:href="#c"/>
        </mask>
        <path fill="#1688CA" mask="url(#d)" d="M0 37h36.633V0H0z"/>
        <path d="M25.845 29.885v-7.83l3.743-1.333v9.163h-3.743zm-18.8 0v-9.163l3.743 1.332v7.83H7.045zm13.143-7.842h3.742v3.616H12.703v-3.616h3.742v-5.915h3.743v5.915zM23.93 9.589H12.703V7.116H8.96v8.563h3.743v-2.474H23.93v2.474h3.742V7.116H23.93v2.473z" fill="#FFF" mask="url(#d)"/>
    </g>
</svg>