<svg width="32" height="32" xmlns="http://www.w3.org/2000/svg">
<g fill-rule="nonzero" fill="none">
    <path d="M16 0c8.837 0 16 7.163 16 16s-7.163 16-16 16S0 24.837 0 16 7.163 0 16 0zm0 2C8.268 2 2 8.268 2 16s6.268 14 14 14 14-6.268 14-14S23.732 2 16 2z" fill="#383F49"/>
    <path d="m19.048 17.724.362-2.414h-2.168v-1.69c0-.675.226-1.206 1.22-1.206H19.5v-2.22c-.587-.097-1.22-.194-1.806-.194-1.852 0-3.162 1.207-3.162 3.38v1.93H12.5v2.414h2.032v6.131a6.464 6.464 0 0 0 2.71 0v-6.13h1.806z" fill="#90949A"/>
</g>
</svg>