<svg width="32" height="32" xmlns="http://www.w3.org/2000/svg">
    <g fill="none" fill-rule="evenodd">
        <circle stroke="#383F49" stroke-width="2" cx="16" cy="16" r="15"/>
        <g fill="#90949A" fill-rule="nonzero">
            <path d="M14.545 13.545h2.39v1.218h.026c.365-.657 1.441-1.324 2.772-1.324 2.554 0 3.267 1.356 3.267 3.868V22h-2.537v-4.23c0-1.125-.449-2.111-1.499-2.111-1.275 0-1.883.863-1.883 2.28V22h-2.536v-8.455zM13.17 10.585a1.585 1.585 0 1 1-3.169.001 1.585 1.585 0 0 1 3.17 0zM10.317 22h2.537v-8.455h-2.537z"/>
        </g>
    </g>
</svg>